<svg xmlns="http://www.w3.org/2000/svg" xmlns:xlink="http://www.w3.org/1999/xlink" id="Layer_1" x="0" y="0" version="1.1" viewBox="131 -131 512 512" xml:space="preserve" style="enable-background:new 131 -131 512 512"><g id="XMLID_4_"><path id="XMLID_6_" d="M387,73.4c-34.4,0-67.1,5-98.2,15.1v66.3c0,8.4-5,15.9-11.8,19.3c-21,10.1-40.3,23.5-57.1,39.4 c-4.2,3.4-9.2,5.9-15.1,5.9s-10.9-2.5-15.1-5.9l-52.8-52.8c-4.2-4.2-5.9-9.2-5.9-15.1s2.5-10.9,5.9-15.1 C202.4,69.2,290.5,30.6,387,30.6s184.7,37.8,250.1,99.9c4.2,4.2,5.9,9.2,5.9,15.1s-2.5,10.9-5.9,15.1l-52.9,52.9 c-4.2,4.2-9.2,5.9-15.1,5.9c-5.9,0-10.9-2.5-15.1-5.9c-16.8-15.9-36.1-29.4-57.1-39.4c-6.7-3.4-11.8-10.9-11.8-19.3V88.6 C454.1,79.3,421.4,73.4,387,73.4z"/></g></svg>